<svg width="38" height="38" viewBox="0 0 38 38" fill="none" xmlns="http://www.w3.org/2000/svg">
<g id="Bitcoin">
<rect id="Rectangle" width="38" height="38" rx="8" fill="url(#paint0_linear_0_108)"/>
<path id="Shape" fill-rule="evenodd" clip-rule="evenodd" d="M27.4309 16.864C27.7552 14.5399 26.0256 13.3508 23.6475 12.4861L24.4041 9.35122L22.5124 8.91883L21.7557 11.9456C21.6818 11.9291 21.6067 11.9127 21.5306 11.8961L21.5305 11.8961C21.1062 11.8033 20.6548 11.7047 20.2424 11.5672L20.9991 8.48644L19.1073 8L18.3507 11.1348C18.1593 11.087 17.9785 11.0497 17.8037 11.0137L17.8036 11.0137L17.8036 11.0137C17.5834 10.9683 17.3725 10.9249 17.1616 10.8646L14.5672 10.216L14.0808 12.2699C14.0808 12.2699 15.4861 12.5942 15.432 12.5942C16.1887 12.8104 16.3508 13.2968 16.2968 13.6751L15.432 17.2424L14.1889 22.2149C14.0808 22.4311 13.8646 22.8094 13.3241 22.6473C13.3241 22.7013 11.9188 22.323 11.9188 22.323L11 24.4849L13.4863 25.0795C13.9726 25.1875 14.4048 25.2956 14.8371 25.4037L14.8375 25.4038L14.0267 28.5386L15.9185 29.025L16.6751 25.8902C17.2156 26.0523 17.7021 26.1604 18.1885 26.2685L17.4318 29.3493L19.3235 29.8358L20.1343 26.7009C23.3772 27.2955 25.8094 27.0793 26.8363 24.1606C27.6471 21.7825 26.7823 20.4313 25.1068 19.5665C26.2418 19.4043 27.1606 18.5936 27.4309 16.864ZM23.107 22.9716C22.564 25.1433 19.2264 24.25 17.6633 23.8316C17.5147 23.7918 17.3822 23.7564 17.2697 23.7282L18.2966 19.5665C18.4353 19.6012 18.6062 19.6389 18.8001 19.6818C20.4187 20.0396 23.6379 20.7512 23.107 22.9716ZM19.0855 17.7539C20.3784 18.0984 23.2046 18.8515 23.7015 16.864C24.2063 14.7437 21.2218 14.1795 19.945 13.9381C19.8548 13.921 19.7732 13.9056 19.7019 13.8913L18.783 17.6748C18.8703 17.6966 18.972 17.7237 19.0855 17.7539Z" fill="white"/>
</g>
<defs>
<linearGradient id="paint0_linear_0_108" x1="14.7616" y1="-12.8763" x2="-10.991" y2="27.4782" gradientUnits="userSpaceOnUse">
<stop stop-color="#FFB85E"/>
<stop offset="1" stop-color="#F28500"/>
</linearGradient>
</defs>
</svg>
